<?xml version="1.0" encoding="UTF-8"?>
<svg id="Layer_1" data-name="Layer 1" xmlns="http://www.w3.org/2000/svg" xmlns:xlink="http://www.w3.org/1999/xlink" viewBox="0 0 135 50">
  <defs>
    <style>
      .cls-1 {
        fill: url(#linear-gradient-38);
      }

      .cls-1, .cls-2, .cls-3, .cls-4, .cls-5, .cls-6, .cls-7, .cls-8, .cls-9, .cls-10, .cls-11, .cls-12, .cls-13, .cls-14, .cls-15, .cls-16, .cls-17, .cls-18, .cls-19, .cls-20, .cls-21, .cls-22, .cls-23, .cls-24, .cls-25, .cls-26, .cls-27, .cls-28, .cls-29, .cls-30, .cls-31, .cls-32, .cls-33, .cls-34, .cls-35, .cls-36, .cls-37, .cls-38, .cls-39, .cls-40, .cls-41, .cls-42, .cls-43, .cls-44, .cls-45, .cls-46, .cls-47 {
        stroke-width: 0px;
      }

      .cls-2 {
        fill: url(#linear-gradient-12);
      }

      .cls-3 {
        fill: url(#linear-gradient-17);
      }

      .cls-4 {
        fill: url(#linear-gradient-19);
      }

      .cls-5 {
        fill: url(#linear-gradient-33);
      }

      .cls-6 {
        fill: url(#linear-gradient);
      }

      .cls-7 {
        fill: url(#linear-gradient-21);
      }

      .cls-8 {
        fill: url(#linear-gradient-6);
      }

      .cls-9 {
        fill: #005b80;
      }

      .cls-10 {
        fill: url(#linear-gradient-42);
      }

      .cls-12 {
        fill: url(#linear-gradient-15);
      }

      .cls-13 {
        fill: url(#linear-gradient-11);
      }

      .cls-14 {
        fill: url(#linear-gradient-5);
      }

      .cls-15 {
        fill: url(#linear-gradient-31);
      }

      .cls-16 {
        fill: url(#linear-gradient-34);
      }

      .cls-17 {
        fill: url(#linear-gradient-41);
      }

      .cls-18 {
        fill: url(#linear-gradient-40);
      }

      .cls-19 {
        fill: url(#linear-gradient-13);
      }

      .cls-20 {
        fill: url(#linear-gradient-23);
      }

      .cls-21 {
        fill: #00a6d1;
      }

      .cls-22 {
        fill: url(#linear-gradient-25);
      }

      .cls-23 {
        fill: url(#linear-gradient-16);
      }

      .cls-24 {
        fill: url(#linear-gradient-22);
      }

      .cls-25 {
        fill: url(#linear-gradient-35);
      }

      .cls-26 {
        fill: url(#linear-gradient-32);
      }

      .cls-27 {
        fill: url(#linear-gradient-20);
      }

      .cls-28 {
        fill: url(#linear-gradient-14);
      }

      .cls-29 {
        fill: url(#linear-gradient-2);
      }

      .cls-30 {
        fill: url(#linear-gradient-7);
      }

      .cls-31 {
        fill: url(#linear-gradient-39);
      }

      .cls-32 {
        fill: url(#linear-gradient-3);
      }

      .cls-33 {
        fill: url(#linear-gradient-9);
      }

      .cls-34 {
        fill: url(#linear-gradient-27);
      }

      .cls-35 {
        fill: #817f80;
      }

      .cls-36 {
        fill: url(#linear-gradient-36);
      }

      .cls-37 {
        fill: #5ab887;
      }

      .cls-38 {
        fill: url(#linear-gradient-8);
      }

      .cls-39 {
        fill: url(#linear-gradient-24);
      }

      .cls-40 {
        fill: url(#linear-gradient-26);
      }

      .cls-41 {
        fill: url(#linear-gradient-18);
      }

      .cls-42 {
        fill: url(#linear-gradient-30);
      }

      .cls-43 {
        fill: url(#linear-gradient-29);
      }

      .cls-44 {
        fill: url(#linear-gradient-28);
      }

      .cls-45 {
        fill: url(#linear-gradient-10);
      }

      .cls-46 {
        fill: url(#linear-gradient-4);
      }

      .cls-47 {
        fill: url(#linear-gradient-37);
      }

      .cls-48 {
        fill: none;
        stroke: #000;
        stroke-miterlimit: 22.93;
        stroke-width: 3.1px;
      }
    </style>
    <linearGradient id="linear-gradient" x1="454.36" y1="2526.12" x2="484.51" y2="2554.11" gradientTransform="translate(-292.88 -1674.25) scale(.67)" gradientUnits="userSpaceOnUse">
      <stop offset="0" stop-color="#3ebee3"/>
      <stop offset=".7" stop-color="#1c86bd"/>
      <stop offset=".83" stop-color="#1c86bd"/>
      <stop offset="1" stop-color="#1c86bd"/>
    </linearGradient>
    <linearGradient id="linear-gradient-2" x1="517.07" y1="2560.46" x2="506.05" y2="2548.34" gradientTransform="translate(-292.88 -1674.25) scale(.67)" gradientUnits="userSpaceOnUse">
      <stop offset="0" stop-color="#a09e9d"/>
      <stop offset=".45" stop-color="#a09e9d"/>
      <stop offset=".94" stop-color="#6d6968"/>
      <stop offset="1" stop-color="#6d6968"/>
    </linearGradient>
    <linearGradient id="linear-gradient-3" x1="520.72" y1="2563.81" x2="476.32" y2="2518.56" xlink:href="#linear-gradient-2"/>
    <linearGradient id="linear-gradient-4" x1="442.15" y1="2525.48" x2="443.88" y2="2525.48" xlink:href="#linear-gradient"/>
    <linearGradient id="linear-gradient-5" x1="441.56" y1="2522.79" x2="442.99" y2="2522.79" gradientTransform="translate(-292.88 -1674.25) scale(.67)" gradientUnits="userSpaceOnUse">
      <stop offset="0" stop-color="#a09e9d"/>
      <stop offset="1" stop-color="#6d6968"/>
    </linearGradient>
    <linearGradient id="linear-gradient-6" x1="442.24" y1="2520.31" x2="443.66" y2="2520.31" xlink:href="#linear-gradient-5"/>
    <linearGradient id="linear-gradient-7" x1="440.6" y1="2520.82" x2="441.41" y2="2520.82" xlink:href="#linear-gradient"/>
    <linearGradient id="linear-gradient-8" x1="452.15" y1="2523.97" x2="456.53" y2="2523.93" xlink:href="#linear-gradient"/>
    <linearGradient id="linear-gradient-9" x1="448.39" y1="2524.55" x2="452.29" y2="2524.55" xlink:href="#linear-gradient-5"/>
    <linearGradient id="linear-gradient-10" x1="447.8" y1="2528.9" x2="452.26" y2="2528.9" xlink:href="#linear-gradient"/>
    <linearGradient id="linear-gradient-11" x1="454.68" y1="2521.39" x2="456.94" y2="2521.39" xlink:href="#linear-gradient-5"/>
    <linearGradient id="linear-gradient-12" x1="452.34" y1="2518.85" x2="454.55" y2="2518.85" xlink:href="#linear-gradient"/>
    <linearGradient id="linear-gradient-13" x1="445.47" y1="2529.11" x2="447.93" y2="2529.11" xlink:href="#linear-gradient-5"/>
    <linearGradient id="linear-gradient-14" x1="445.73" y1="2527.08" x2="447.46" y2="2527.08" xlink:href="#linear-gradient"/>
    <linearGradient id="linear-gradient-15" x1="446.08" y1="2524.58" x2="448.57" y2="2524.58" xlink:href="#linear-gradient"/>
    <linearGradient id="linear-gradient-16" x1="444.21" y1="2524.62" x2="446.25" y2="2524.62" xlink:href="#linear-gradient-5"/>
    <linearGradient id="linear-gradient-17" x1="449.06" y1="2521.09" x2="452.57" y2="2521.09" xlink:href="#linear-gradient"/>
    <linearGradient id="linear-gradient-18" x1="448.38" y1="2522.99" x2="449.8" y2="2522.99" xlink:href="#linear-gradient"/>
    <linearGradient id="linear-gradient-19" x1="449.85" y1="2517.85" x2="452.4" y2="2517.85" xlink:href="#linear-gradient-5"/>
    <linearGradient id="linear-gradient-20" x1="446.52" y1="2520.99" x2="449.16" y2="2520.99" xlink:href="#linear-gradient-5"/>
    <linearGradient id="linear-gradient-21" x1="444.05" y1="2521.98" x2="446.08" y2="2521.98" xlink:href="#linear-gradient"/>
    <linearGradient id="linear-gradient-22" x1="445.36" y1="2518.9" x2="447.4" y2="2518.9" xlink:href="#linear-gradient"/>
    <linearGradient id="linear-gradient-23" x1="520.86" y1="2550.02" x2="519.13" y2="2549.97" xlink:href="#linear-gradient"/>
    <linearGradient id="linear-gradient-24" x1="521.36" y1="2552.72" x2="519.93" y2="2552.68" xlink:href="#linear-gradient-5"/>
    <linearGradient id="linear-gradient-25" x1="520.61" y1="2555.19" x2="519.18" y2="2555.14" xlink:href="#linear-gradient-5"/>
    <linearGradient id="linear-gradient-26" x1="522.26" y1="2554.72" x2="521.44" y2="2554.7" xlink:href="#linear-gradient"/>
    <linearGradient id="linear-gradient-27" x1="508.22" y1="2548.92" x2="508.69" y2="2548.94" xlink:href="#linear-gradient"/>
    <linearGradient id="linear-gradient-28" x1="514.59" y1="2550.75" x2="510.69" y2="2550.63" xlink:href="#linear-gradient-5"/>
    <linearGradient id="linear-gradient-29" x1="521.91" y1="2556.07" x2="510.9" y2="2543.94" xlink:href="#linear-gradient-2"/>
    <linearGradient id="linear-gradient-30" x1="515.19" y1="2546.28" x2="515.33" y2="2546.29" xlink:href="#linear-gradient"/>
    <linearGradient id="linear-gradient-31" x1="508.2" y1="2553.72" x2="505.94" y2="2553.65" xlink:href="#linear-gradient-5"/>
    <linearGradient id="linear-gradient-32" x1="510.46" y1="2556.33" x2="508.25" y2="2556.26" xlink:href="#linear-gradient"/>
    <linearGradient id="linear-gradient-33" x1="515.19" y1="2546.21" x2="517.66" y2="2546.29" xlink:href="#linear-gradient-5"/>
    <linearGradient id="linear-gradient-34" x1="517.33" y1="2548.31" x2="515.59" y2="2548.25" xlink:href="#linear-gradient"/>
    <linearGradient id="linear-gradient-35" x1="516.9" y1="2550.8" x2="514.41" y2="2550.72" xlink:href="#linear-gradient"/>
    <linearGradient id="linear-gradient-36" x1="518.77" y1="2550.81" x2="516.74" y2="2550.75" xlink:href="#linear-gradient-5"/>
    <linearGradient id="linear-gradient-37" x1="513.81" y1="2554.19" x2="510.3" y2="2554.08" xlink:href="#linear-gradient"/>
    <linearGradient id="linear-gradient-38" x1="514.55" y1="2552.31" x2="513.13" y2="2552.26" xlink:href="#linear-gradient"/>
    <linearGradient id="linear-gradient-39" x1="512.92" y1="2557.4" x2="510.37" y2="2557.32" xlink:href="#linear-gradient-5"/>
    <linearGradient id="linear-gradient-40" x1="516.35" y1="2554.37" x2="513.7" y2="2554.29" xlink:href="#linear-gradient-5"/>
    <linearGradient id="linear-gradient-41" x1="518.85" y1="2553.45" x2="516.81" y2="2553.39" xlink:href="#linear-gradient"/>
    <linearGradient id="linear-gradient-42" x1="517.43" y1="2556.49" x2="515.4" y2="2556.43" xlink:href="#linear-gradient"/>
  </defs>
  <g id="Logo">
    <g id="g149">
      <path id="path70" class="cls-35" d="m32.76,21.76l-6.34,6.73-6.26-6.72,2.19-2.41c2.17-2.39,5.91-2.41,8.12-.06,0,0,0,0,0,0l2.28,2.45Z"/>
      <path id="path72" class="cls-21" d="m38.99,28.49l-2.2,2.42c-2.17,2.39-5.91,2.41-8.11.05,0,0,0,0,0,0l-2.28-2.46,6.36-6.72,6.23,6.72Z"/>
      <path id="path73" class="cls-9" d="m36.8,30.91l-4.04,4.44-2.39,2.64c-2.07,2.29-5.67,2.31-7.76.03l-8.76-9.54,6.3-6.73h0s6.24,6.74,6.24,6.74l2.28,2.46s0,0,0,0c2.2,2.36,5.94,2.34,8.11-.05"/>
      <path id="path74" class="cls-6" d="m7.71,21.79l14.91,16.23c2.09,2.28,5.68,2.26,7.76-.03h0l2.39-2.64,4.03-4.44c-2.17,2.39-5.91,2.41-8.11.05h0s0,0,0,0h0l-2.28-2.46-6.24-6.73-6.31-6.81-6.14,6.84Z"/>
      <path id="path76" class="cls-37" d="m45.18,21.63l-6.21,6.82-6.2-6.69-2.28-2.45s0,0,0-.01c-2.2-2.36-5.94-2.34-8.12.04l4.05-4.43,2.5-2.63c2.09-2.2,5.61-2.18,7.67.05l8.61,9.3Z"/>
      <path id="path77" class="cls-29" d="m47.46,32.93l-.04.04-1.14,1.23h0s1.41,1.72,1.41,1.72l1.51-1.63-1.4-1.7h0s-.33.34-.33.34h0Z"/>
      <path id="path78" class="cls-32" d="m28.9,12.28l-2.5,2.64-4.04,4.43c2.17-2.38,5.92-2.4,8.12-.04h0s0,0,0,0h0l2.28,2.45,6.23,6.72s5.82,6.25,6.29,6.72h0s.03.03.03.03h0l.97-1.03h0s1.14-1.23,1.14-1.23l.04-.04.33-.35h0s3.76-4,3.76-4c0-.03-14.99-16.26-14.99-16.26h0c-1.04-1.12-2.45-1.69-3.86-1.69h0c-1.39,0-2.78.55-3.81,1.64h0Z"/>
      <path id="path80" class="cls-46" d="m3.22,17.03l.56.6.6-.56-.56-.6-.6.56Z"/>
      <path id="path82" class="cls-14" d="m2.83,15.24l.46.49.49-.46-.46-.49-.49.46Z"/>
      <path id="path84" class="cls-8" d="m3.28,13.57l.46.49.49-.46-.46-.49-.49.46Z"/>
      <path id="path85" class="cls-30" d="m2.18,13.92l.27.28.28-.27-.27-.28-.28.27Z"/>
      <path id="path86" class="cls-38" d="m9.92,16.03l1.47,1.67,1.46-1.68-1.47-1.67-1.46,1.68Z"/>
      <path id="path88" class="cls-33" d="m7.4,16.47l1.3,1.4,1.32-1.48-1.3-1.4-1.32,1.48Z"/>
      <path id="path89" class="cls-45" d="m7,19.39l1.49,1.61,1.5-1.7-1.49-1.61-1.5,1.7Z"/>
      <path id="path90" class="cls-13" d="m11.62,14.31l.75.86.76-.86-.75-.86-.76.86Z"/>
      <path id="path92" class="cls-2" d="m10.05,12.59l.72.76.76-.72-.72-.76-.76.72Z"/>
      <path id="path94" class="cls-19" d="m5.44,19.48l.83.93.83-.93-.83-.93-.83.93Z"/>
      <path id="path95" class="cls-28" d="m5.62,18.11l.56.6.6-.56-.56-.6-.6.56Z"/>
      <path id="path96" class="cls-12" d="m5.86,16.45l.83.94.83-.94-.83-.94-.83.94Z"/>
      <path id="path98" class="cls-23" d="m4.6,16.4l.66.8.7-.66-.66-.8-.7.66Z"/>
      <path id="path99" class="cls-3" d="m7.85,14.06l1.23,1.37,1.12-1.26-1.12-1.37-1.23,1.26Z"/>
      <path id="path100" class="cls-41" d="m7.39,15.36l.51.55.45-.51-.51-.55-.45.51Z"/>
      <path id="path102" class="cls-4" d="m8.38,11.86l.78,1.03.93-.88-.78-1.03-.93.88Z"/>
      <path id="path104" class="cls-27" d="m6.15,13.97l.86,1.01.91-.86-.86-1.01-.91.86Z"/>
      <path id="path105" class="cls-7" d="m4.49,14.69l.66.7.7-.66-.66-.7-.7.66Z"/>
      <path id="path106" class="cls-24" d="m5.38,12.63l.66.7.7-.66-.66-.7-.7.66Z"/>
      <path id="path108" class="cls-20" d="m54.78,33.43l.54.61.61-.54-.54-.61-.61.54Z"/>
      <path id="path110" class="cls-39" d="m55.32,35.25l.45.51.51-.45-.45-.51-.51.45Z"/>
      <path id="path111" class="cls-22" d="m54.81,36.9l.45.51.51-.45-.45-.51-.51.45Z"/>
      <path id="path112" class="cls-40" d="m56.33,36.61l.26.29.29-.26-.26-.29-.29.26Z"/>
      <path id="path114" class="cls-34" d="m47.46,32.93l.33-.35h0s-.33.35-.33.35Z"/>
      <path id="path115" class="cls-44" d="m49.12,33.93l1.25,1.44,1.36-1.44-1.25-1.44-1.36,1.44Z"/>
      <path id="path116" class="cls-43" d="m49.23,31.02l.03.03,1.41,1.62,1.55-1.64-.08-.1h0s-1.31-1.51-1.31-1.51l-.04-.04-1.56,1.65h0Z"/>
      <path id="path118" class="cls-42" d="m52.14,30.93l.08.1h0s-.09-.1-.09-.1h0s0,0,0,0Z"/>
      <path id="path120" class="cls-15" d="m45.95,35.91l.72.89.79-.83-.72-.89-.79.83Z"/>
      <path id="path121" class="cls-26" d="m47.49,37.64l.7.79.79-.7-.7-.79-.79.7Z"/>
      <path id="path122" class="cls-5" d="m52.14,30.93h0s.08.1.08.1l.68.81.03.04.11-.12.74-.78-.8-.96-.85.9h0Z"/>
      <path id="path124" class="cls-16" d="m52.41,32.28l.54.61.61-.54-.54-.61-.61.54Z"/>
      <path id="path125" class="cls-25" d="m51.62,33.95l.8.96.86-.91-.8-.96-.86.91Z"/>
      <path id="path126" class="cls-36" d="m53.17,33.9l.64.83.72-.64-.64-.83-.72.64Z"/>
      <path id="path128" class="cls-47" d="m48.87,36.15l1.08,1.4,1.26-1.23-1.18-1.4-1.16,1.23Z"/>
      <path id="path130" class="cls-1" d="m50.76,34.96l.49.57.46-.49-.49-.57-.46.49Z"/>
      <path id="path132" class="cls-31" d="m48.91,38.29l.74,1.06.96-.85-.74-1.06-.96.85Z"/>
      <path id="path133" class="cls-18" d="m51.15,36.26l.83,1.04.94-.83-.83-1.04-.94.83Z"/>
      <path id="path134" class="cls-17" d="m53.23,35.72l.64.72.72-.64-.64-.72-.72.64Z"/>
      <path id="path136" class="cls-10" d="m52.28,37.76l.64.72.72-.64-.64-.72-.72.64Z"/>
      <path id="path137" class="cls-35" d="m82.39,17.5c1.4,0,2.22-.9,2.22-2.21s-.82-2.17-2.22-2.17h-4.26v6.07h1.05v-5.01h3.21c.75,0,1.19.45,1.19,1.15s-.44,1.15-1.19,1.15h-2.43v1.02h2.43Zm12.74,1.69v-1.06h-4.08v-5h-1.06v6.07h5.14Zm10.82-2.68c0,1.22-.54,1.72-2.21,1.72s-2.21-.5-2.21-1.72v-3.39h-1.09v3.39c0,1.88.93,2.76,3.27,2.76s3.28-.89,3.28-2.76v-3.39h-1.03v3.39Zm11.17,2.68c1.27,0,1.88-.76,1.88-1.78,0-1.18-.66-1.75-1.88-1.75h-2.78c-.47,0-.76-.28-.76-.73s.28-.75.77-.75h4.35v-1.06h-4.35c-1.21,0-1.87.73-1.87,1.7s.71,1.73,1.85,1.73h2.79c.57,0,.89.27.89.78,0,.48-.32.79-.89.79h-4.55v1.06h4.55Z"/>
      <path id="path138" class="cls-21" d="m123.74,18.93l3.5-5.81c.13-.21.28-.34.51-.34s.39.14.52.34l3.49,5.81h-1.21l-2.75-4.66-1.35,2.27h1.86l.5.86h-2.87l-.91,1.53h-1.28Z"/>
      <path id="path146" class="cls-35" d="m67.19,27.43v-2.25h1.04v-.48h-2.55v.48h1.04v2.25h.48Zm6.55,0v-.48h-1.96v-1.77h1.96v-.48h-2.43v2.73h2.44Zm-.11-1.19v-.4h-1.51v.4h1.51Zm6,1.19v-.48h-1.48c-.49,0-.85-.38-.85-.89s.36-.88.85-.88h1.48v-.48h-1.48c-.76,0-1.33.54-1.33,1.34s.57,1.39,1.33,1.39h1.48Zm5.82.01v-2.74h-.48v1.13h-1.37v.43h1.37v1.18h.48Zm-2.19,0v-2.74h-.48v2.74h.48Zm7.79-.08c.07.07.14.1.22.1.14,0,.24-.11.24-.29v-2.5h-.46v1.99l-1.92-1.91c-.07-.07-.13-.1-.2-.1-.15,0-.25.11-.25.29v2.47h.46v-1.99l1.91,1.93Zm5.58.07c.78,0,1.34-.6,1.34-1.39s-.55-1.34-1.34-1.34h-.66c-.76,0-1.33.54-1.33,1.34s.57,1.39,1.33,1.39h.66Zm-.66-.48c-.49,0-.85-.38-.85-.89s.36-.88.85-.88h.66c.51,0,.86.37.86.88s-.36.89-.86.89h-.66Zm7.46.48v-.48h-1.84v-2.25h-.48v2.73h2.31Zm5.01,0c.78,0,1.34-.6,1.34-1.39s-.55-1.34-1.34-1.34h-.66c-.76,0-1.33.54-1.33,1.34s.57,1.39,1.33,1.39h.66Zm-.66-.48c-.49,0-.85-.38-.85-.89s.36-.88.85-.88h.66c.51,0,.86.37.86.88s-.36.89-.86.89h-.66Zm8.04.48v-1.59h-1.71v.4h1.23v.71h-1.17c-.49,0-.85-.38-.85-.89s.36-.88.85-.88h1.48v-.48h-1.48c-.76,0-1.33.54-1.33,1.34s.57,1.39,1.33,1.39h1.65Zm3.7,0v-2.73h-.48v2.73h.48Zm5.69,0v-.48h-1.96v-1.77h1.96v-.48h-2.43v2.73h2.44Zm-.11-1.19v-.4h-1.51v.4h1.51Zm5.32,1.19c.57,0,.85-.34.85-.8,0-.53-.3-.79-.85-.79h-1.25c-.21,0-.34-.13-.34-.33s.13-.33.35-.33h1.96v-.48h-1.96c-.55,0-.84.33-.84.77s.32.78.83.78h1.25c.26,0,.4.12.4.36,0,.21-.15.36-.4.36h-2.04v.48h2.04Z"/>
      <path id="path147" class="cls-11" d="m74.38,36.45h.33v-2.61h.98v-.31h-2.29v.31h.98v2.61Zm1.96,0h.32v-1.24c0-.4.28-.68.65-.68s.6.25.6.65v1.26h.32v-1.34c0-.52-.31-.87-.83-.87-.37,0-.6.19-.74.42v-1.26h-.32v3.05Zm2.91-.95h1.71c0-.05,0-.09,0-.12,0-.63-.37-1.14-1-1.14-.6,0-1.04.5-1.04,1.13,0,.67.49,1.13,1.08,1.13.41,0,.67-.16.89-.41l-.2-.18c-.18.19-.38.31-.68.31-.38,0-.72-.26-.76-.72Zm0-.26c.05-.42.33-.73.7-.73.43,0,.65.34.69.73h-1.39Zm3.61,1.21h.33v-2.92h-.33v2.92Zm1.28,0h.32v-1.24c0-.4.28-.68.65-.68s.6.25.6.65v1.26h.32v-1.34c0-.52-.31-.87-.83-.87-.37,0-.6.19-.74.42v-.38h-.32v2.16Zm4.26-2.63h.37v-.36h-.37v.36Zm-1.42,2.63h.32v-1.88h.68v-.27h-.69v-.18c0-.31.13-.46.38-.46.11,0,.2.03.32.06v-.28c-.11-.04-.21-.05-.36-.05-.2,0-.36.06-.47.17-.12.12-.19.31-.19.55v.19h-.3v.28h.3v1.88Zm1.44,0h.32v-2.16h-.32v2.16Zm1.22,0h.32v-1.24c0-.4.28-.68.65-.68s.6.25.6.65v1.26h.32v-1.34c0-.52-.31-.87-.83-.87-.37,0-.6.19-.74.42v-.38h-.32v2.16Zm2.8,0h.33v-2.92h-.33v2.92Zm2.11,0h.33v-2.61h.98v-.31h-2.29v.31h.98v2.61Zm3.21,0h.33v-2.92h-.33v2.92Zm1.28,0h.32v-1.24c0-.4.28-.68.65-.68s.6.25.6.65v1.26h.32v-1.34c0-.52-.31-.87-.83-.87-.37,0-.6.19-.74.42v-.38h-.32v2.16Zm3.44.04c.16,0,.28-.03.39-.09v-.28c-.11.06-.21.08-.31.08-.22,0-.37-.1-.37-.36v-1.26h.69v-.29h-.69v-.65h-.32v.65h-.3v.29h.3v1.3c0,.44.27.61.61.61h0Zm1.24-.98h1.71c0-.05,0-.09,0-.12,0-.63-.37-1.14-1-1.14-.6,0-1.04.5-1.04,1.13,0,.67.49,1.13,1.08,1.13.41,0,.67-.16.89-.41l-.2-.18c-.18.19-.38.31-.68.31-.38,0-.72-.26-.76-.72Zm0-.26c.05-.42.33-.73.7-.73.43,0,.65.34.69.73h-1.39Zm2.45,1.21h.33v-3.05h-.33v3.05Zm1.25,0h.33v-3.05h-.33v3.05Zm1.23-2.63h.37v-.36h-.37v.36Zm.02,2.63h.33v-2.16h-.33v2.16Zm2.17.68c.35,0,.63-.1.82-.29.18-.18.28-.43.28-.76v-1.78h-.32v.39c-.18-.24-.44-.44-.84-.44-.51,0-1.01.39-1.01,1.02h0c0,.63.5,1.02,1.01,1.02.4,0,.66-.21.85-.46v.26c0,.5-.31.77-.78.77-.31,0-.59-.1-.83-.28l-.15.25c.29.2.62.3.98.3h0Zm0-1.13c-.4,0-.75-.3-.75-.74h0c0-.45.34-.73.75-.73s.79.29.79.73h0c0,.44-.39.74-.79.74h0Zm2.16-.5h1.71c0-.05,0-.09,0-.12,0-.63-.37-1.14-1-1.14-.6,0-1.04.5-1.04,1.13,0,.67.49,1.13,1.08,1.13.41,0,.67-.16.89-.41l-.2-.18c-.18.19-.38.31-.68.31-.38,0-.72-.26-.76-.72Zm0-.26c.05-.42.33-.73.7-.73.43,0,.65.34.69.73h-1.39Zm2.43,1.21h.32v-1.24c0-.4.28-.68.65-.68s.6.25.6.65v1.26h.32v-1.34c0-.52-.31-.87-.83-.87-.37,0-.6.19-.74.42v-.38h-.32v2.16Zm3.69.05c.41,0,.66-.18.88-.42l-.2-.2c-.17.19-.39.33-.66.33-.45,0-.79-.38-.79-.84h0c0-.47.33-.84.77-.84.29,0,.49.15.66.33l.21-.23c-.2-.22-.46-.39-.86-.39-.63,0-1.11.52-1.11,1.13h0c0,.62.48,1.13,1.11,1.13Zm1.69-1h1.71c0-.05,0-.09,0-.12,0-.63-.37-1.14-1-1.14-.6,0-1.04.5-1.04,1.13,0,.67.49,1.13,1.08,1.13.41,0,.67-.16.89-.41l-.2-.18c-.18.19-.38.31-.68.31-.38,0-.72-.26-.76-.72Zm0-.26c.05-.42.33-.73.7-.73.43,0,.65.34.69.73h-1.39Z"/>
      <path id="path148" class="cls-21" d="m73.07,19.09l-3.5-5.81c-.13-.21-.28-.34-.51-.34s-.39.14-.52.34l-3.49,5.81h1.21l2.75-4.66,1.35,2.27h-1.86l-.5.86h2.87l.91,1.53h1.28Z"/>
      <path id="path149" class="cls-48" d="m64.94,31.01h67.14"/>
    </g>
  </g>
</svg>