<?xml version="1.0" encoding="UTF-8"?>
<svg id="Layer_2" data-name="Layer 2" xmlns="http://www.w3.org/2000/svg" viewBox="0 0 17.83 17.77">
  <defs>
    <style>
      .cls-1 {
        fill: #00a6d1;
        stroke-width: 0px;
      }
    </style>
  </defs>
  <g id="Primary_logo_version" data-name="Primary logo version">
    <g id="Hero_Section" data-name="Hero Section">
      <path class="cls-1" d="M17.41,15.03c-1.32-1.35-2.64-2.71-3.96-4.06.65-1.09,1.03-2.36,1.03-3.73,0-4-3.24-7.24-7.24-7.24S0,3.24,0,7.24s3.24,7.24,7.24,7.24c1.37,0,2.65-.38,3.75-1.04,1.36,1.31,2.73,2.61,4.09,3.92.57.54,1.46.55,2.04.02.08-.07.16-.14.24-.22.61-.57.64-1.53.06-2.13ZM7.34,12.35c-2.83,0-5.12-2.29-5.12-5.12S4.52,2.11,7.34,2.11s5.12,2.29,5.12,5.12-2.29,5.12-5.12,5.12Z"/>
    </g>
  </g>
</svg>