<?xml version="1.0" encoding="UTF-8"?>
<svg id="Layer_1" data-name="Layer 1" xmlns="http://www.w3.org/2000/svg" version="1.1" xmlns:xlink="http://www.w3.org/1999/xlink" viewBox="0 0 64.75 64.85">
  <defs>
    <style>
      .cls-1 {
        fill: #b9b9b9;
      }

      .cls-1, .cls-2, .cls-3, .cls-4, .cls-5, .cls-6 {
        stroke-width: 0px;
      }

      .cls-7 {
        clip-path: url(#clippath-2);
      }

      .cls-2 {
        fill: #51a9cb;
      }

      .cls-3 {
        fill: #dbdbdb;
      }

      .cls-4 {
        fill: none;
      }

      .cls-8 {
        clip-path: url(#clippath-1);
      }

      .cls-5 {
        fill: #1c86bd;
      }

      .cls-9 {
        clip-path: url(#clippath);
      }

      .cls-6 {
        fill: #fff;
      }

      .cls-10 {
        display: none;
      }
    </style>
    <clipPath id="clippath">
      <rect class="cls-4" x="0" y="0" width="64.75" height="64.85"/>
    </clipPath>
    <clipPath id="clippath-1">
      <rect class="cls-4" x="12.37" y="12.43" width="40" height="40"/>
    </clipPath>
    <clipPath id="clippath-2">
      <rect class="cls-4" x="12.37" y="12.43" width="40" height="40"/>
    </clipPath>
  </defs>
  <g class="cls-9">
    <path class="cls-3" d="M0,32.43c0,.53.01,1.06.04,1.59.03.53.06,1.06.12,1.59.05.53.12,1.05.19,1.58.08.52.17,1.05.27,1.57.1.52.22,1.04.35,1.55.13.51.27,1.03.42,1.53.15.51.32,1.01.5,1.51.18.5.37.99.57,1.48.2.49.42.98.64,1.46.23.48.46.95.71,1.42s.51.93.78,1.38c.27.46.56.9.85,1.34.29.44.6.87.91,1.3.32.43.64.84.98,1.25.34.41.68.81,1.04,1.21.36.39.72.78,1.1,1.15.37.38.76.74,1.15,1.1.39.36.79.7,1.2,1.04.41.34.83.66,1.25.98.43.32.86.62,1.3.92.44.29.89.58,1.34.85.45.27.92.53,1.38.78.47.25.94.49,1.42.72.48.23.96.44,1.45.64.49.2.98.39,1.48.57.5.18,1,.35,1.51.5.51.15,1.02.3,1.53.42.51.13,1.03.25,1.55.35.52.1,1.04.19,1.57.27s1.05.14,1.58.19c.53.05,1.06.09,1.58.12.53.03,1.06.04,1.59.04.53,0,1.06-.01,1.59-.04.53-.03,1.06-.07,1.58-.12.53-.05,1.05-.12,1.58-.19.52-.08,1.05-.17,1.57-.27.52-.1,1.04-.22,1.55-.35.51-.13,1.02-.27,1.53-.42.51-.15,1.01-.32,1.51-.5.5-.18.99-.37,1.48-.57.49-.2.97-.42,1.45-.64.48-.23.95-.47,1.42-.72.47-.25.93-.51,1.38-.78.45-.27.9-.56,1.34-.85.44-.29.87-.6,1.3-.92.43-.32.84-.64,1.25-.98.41-.34.81-.68,1.2-1.04.39-.36.78-.72,1.15-1.1.37-.38.74-.76,1.1-1.15.36-.39.7-.79,1.04-1.21.34-.41.66-.83.98-1.25.32-.43.62-.86.91-1.3.29-.44.58-.89.85-1.34s.53-.92.78-1.38c.25-.47.49-.94.71-1.42.23-.48.44-.96.64-1.46.2-.49.39-.99.57-1.48.18-.5.34-1,.5-1.51.15-.51.3-1.02.42-1.53.13-.51.24-1.03.35-1.55.1-.52.19-1.04.27-1.57.08-.52.14-1.05.19-1.58.05-.53.09-1.06.12-1.59.03-.53.04-1.06.04-1.59,0-.53-.01-1.06-.04-1.59-.03-.53-.06-1.06-.12-1.59-.05-.53-.12-1.05-.19-1.58-.08-.52-.17-1.05-.27-1.57-.1-.52-.22-1.04-.35-1.55-.13-.51-.27-1.03-.42-1.53-.15-.51-.32-1.01-.5-1.51-.18-.5-.37-.99-.57-1.48-.2-.49-.42-.98-.64-1.46-.23-.48-.46-.95-.71-1.42-.25-.47-.51-.93-.78-1.38s-.56-.9-.85-1.34c-.29-.44-.6-.87-.91-1.3-.32-.43-.64-.84-.98-1.25-.34-.41-.68-.81-1.04-1.21-.36-.39-.72-.78-1.1-1.15-.37-.38-.76-.74-1.15-1.1-.39-.36-.79-.7-1.2-1.04-.41-.34-.83-.66-1.25-.98-.43-.32-.86-.62-1.3-.92-.44-.29-.89-.58-1.34-.85-.45-.27-.92-.53-1.38-.78-.47-.25-.94-.49-1.42-.72-.48-.23-.96-.44-1.45-.64-.49-.2-.98-.39-1.48-.57-.5-.18-1-.35-1.51-.5-.51-.15-1.02-.3-1.53-.42-.51-.13-1.03-.25-1.55-.35-.52-.1-1.04-.19-1.57-.27-.52-.08-1.05-.14-1.58-.19-.53-.05-1.06-.09-1.58-.12C33.43.01,32.9,0,32.37,0s-1.06.01-1.59.04c-.53.03-1.06.07-1.58.12-.53.05-1.05.12-1.58.19-.52.08-1.05.17-1.57.27-.52.1-1.04.22-1.55.35-.51.13-1.02.27-1.53.42s-1.01.32-1.51.5c-.5.18-.99.37-1.48.57-.49.2-.97.42-1.45.64s-.95.47-1.42.72c-.47.25-.93.51-1.38.78-.45.27-.9.56-1.34.85-.44.29-.87.6-1.3.92-.43.32-.84.64-1.25.98-.41.34-.81.68-1.2,1.04-.39.36-.78.72-1.15,1.1s-.74.76-1.1,1.15c-.36.39-.7.79-1.04,1.21-.34.41-.66.83-.98,1.25-.32.43-.62.86-.91,1.3-.29.44-.58.89-.85,1.34-.27.46-.53.92-.78,1.38-.25.47-.49.94-.71,1.42-.23.48-.44.96-.64,1.46-.2.49-.39.99-.57,1.48-.18.5-.34,1-.5,1.51-.15.51-.3,1.02-.42,1.53-.13.51-.24,1.03-.35,1.55-.1.52-.19,1.04-.27,1.57-.08.52-.14,1.05-.19,1.58-.05.53-.09,1.06-.12,1.59C.01,31.37,0,31.9,0,32.43Z"/>
    <path class="cls-6" d="M14.24,32.1c0-.13,0-.2.07-.33,0-.13.07-.2.07-.33s.07-.2.13-.33.07-.2.13-.33c.07-.13.13-.2.2-.26.07-.13.13-.2.2-.33q.07-.07.07-.13l12.42-13.93c1.3-1.5,3.58-1.56,5.01-.26,1.5,1.3,1.56,3.58.26,5.01l-10.21,11.52,10.27,11.52c1.3,1.5,1.17,3.71-.26,5.01-.65.59-1.5.91-2.34.91-.98,0-1.95-.39-2.67-1.17l-12.42-13.87q-.07-.07-.07-.13c-.07-.13-.13-.2-.2-.33-.07-.07-.13-.2-.2-.26-.07-.13-.13-.2-.13-.33-.07-.13-.07-.2-.13-.33,0-.13-.07-.2-.07-.33,0-.13-.07-.2-.07-.33v-.33c-.07-.2-.07-.26-.07-.39Z"/>
    <path class="cls-2" d="M31.85,34.71c-.07-.13-.13-.2-.2-.33-.07-.07-.13-.2-.2-.26-.07-.13-.13-.2-.13-.33-.07-.13-.07-.2-.13-.33,0-.13-.07-.2-.07-.33,0-.13-.07-.2-.07-.33v-.65c0-.13,0-.2.07-.33,0-.13.07-.2.07-.33,0-.13.07-.2.13-.33.07-.13.07-.2.13-.33s.13-.2.2-.26c.07-.13.13-.2.2-.33q.07-.07.07-.13l12.42-14c1.3-1.5,3.58-1.56,5.01-.26,1.5,1.3,1.56,3.58.26,5.01l-10.27,11.52,10.27,11.52c1.3,1.5,1.17,3.71-.26,5.01-.65.59-1.5.91-2.34.91-.98,0-1.95-.39-2.67-1.17l-12.42-13.87c-.07-.07-.07-.13-.07-.13Z"/>
  </g>
  <g class="cls-10">
    <g class="cls-8">
      <path class="cls-5" d="M52.37,32.43c0,.33,0,.65-.02.98-.02.33-.04.65-.07.98-.03.33-.07.65-.12.97-.05.32-.1.65-.17.97-.06.32-.14.64-.22.96-.08.32-.17.63-.26.95-.1.31-.2.62-.31.93-.11.31-.23.61-.35.92-.13.3-.26.6-.4.9-.14.3-.29.59-.44.88s-.32.57-.48.85c-.17.28-.34.56-.53.83-.18.27-.37.54-.57.8-.19.26-.4.52-.6.77-.21.25-.42.5-.64.74-.22.24-.45.48-.68.71-.23.23-.47.46-.71.68-.24.22-.49.43-.74.64-.25.21-.51.41-.77.6-.26.19-.53.38-.8.57-.27.18-.55.36-.83.53-.28.17-.57.33-.85.48-.29.15-.58.3-.88.44-.3.14-.6.27-.9.4-.3.13-.61.24-.92.35-.31.11-.62.21-.93.31-.31.1-.63.18-.95.26-.32.08-.64.15-.96.22-.32.06-.64.12-.97.17s-.65.09-.97.12c-.33.03-.65.06-.98.07-.33.02-.65.02-.98.02-.33,0-.65,0-.98-.02-.33-.02-.65-.04-.98-.07-.33-.03-.65-.07-.97-.12-.32-.05-.65-.1-.97-.17-.32-.06-.64-.14-.96-.22-.32-.08-.63-.17-.95-.26-.31-.1-.62-.2-.93-.31-.31-.11-.61-.23-.92-.35-.3-.13-.6-.26-.9-.4-.3-.14-.59-.29-.88-.44-.29-.15-.57-.32-.85-.48-.28-.17-.56-.34-.83-.53-.27-.18-.54-.37-.8-.57-.26-.19-.52-.4-.77-.6-.25-.21-.5-.42-.74-.64-.24-.22-.48-.45-.71-.68-.23-.23-.46-.47-.68-.71-.22-.24-.43-.49-.64-.74-.21-.25-.41-.51-.6-.77-.19-.26-.38-.53-.57-.8-.18-.27-.36-.55-.53-.83s-.33-.57-.48-.85c-.15-.29-.3-.58-.44-.88-.14-.3-.27-.6-.4-.9-.13-.3-.24-.61-.35-.92s-.21-.62-.31-.93c-.1-.31-.18-.63-.26-.95-.08-.32-.15-.64-.22-.96-.06-.32-.12-.64-.17-.97-.05-.32-.09-.65-.12-.97-.03-.33-.06-.65-.07-.98-.02-.33-.02-.65-.02-.98,0-.33,0-.65.02-.98.02-.33.04-.65.07-.98.03-.33.07-.65.12-.97.05-.32.1-.65.17-.97.06-.32.14-.64.22-.96.08-.32.17-.63.26-.95.1-.31.2-.62.31-.93.11-.31.23-.61.35-.92.13-.3.26-.6.4-.9.14-.3.29-.59.44-.88.15-.29.32-.57.48-.85s.34-.56.53-.83c.18-.27.37-.54.57-.8.19-.26.4-.52.6-.77.21-.25.42-.5.64-.74.22-.24.45-.48.68-.71.23-.23.47-.46.71-.68.24-.22.49-.43.74-.64.25-.21.51-.41.77-.6.26-.19.53-.38.8-.57.27-.18.55-.36.83-.53.28-.17.57-.33.85-.48.29-.15.58-.3.88-.44.3-.14.6-.27.9-.4.3-.13.61-.24.92-.35.31-.11.62-.21.93-.31s.63-.18.95-.26c.32-.08.64-.15.96-.22.32-.06.64-.12.97-.17.32-.05.65-.09.97-.12.33-.03.65-.06.98-.07.33-.02.65-.02.98-.02s.65,0,.98.02c.33.02.65.04.98.07.33.03.65.07.97.12.32.05.65.1.97.17.32.06.64.14.96.22.32.08.63.17.95.26s.62.2.93.31c.31.11.61.23.92.35.3.13.6.26.9.4s.59.29.88.44c.29.15.57.32.85.48.28.17.56.34.83.53.27.18.54.37.8.57.26.19.52.4.77.6.25.21.5.42.74.64.24.22.48.45.71.68s.46.47.68.71c.22.24.43.49.64.74.21.25.41.51.6.77.19.26.38.53.57.8.18.27.36.55.53.83.17.28.33.57.48.85.15.29.3.58.44.88s.27.6.4.9c.13.3.24.61.35.92.11.31.21.62.31.93.1.31.18.63.26.95.08.32.15.64.22.96.06.32.12.64.17.97.05.32.09.65.12.97.03.33.06.65.07.98.02.33.02.65.02.98Z"/>
      <path class="cls-6" d="M43.58,32.23c0-.08,0-.12-.04-.2,0-.08-.04-.12-.04-.2s-.04-.12-.08-.2-.04-.12-.08-.2c-.04-.08-.08-.12-.12-.16-.04-.08-.08-.12-.12-.2t-.04-.08l-7.67-8.59c-.8-.92-2.21-.96-3.09-.16-.92.8-.96,2.21-.16,3.09l6.31,7.11-6.35,7.11c-.8.92-.72,2.29.16,3.09.4.36.92.56,1.45.56.6,0,1.2-.24,1.65-.72l7.67-8.55s.04-.04.04-.08c.04-.08.08-.12.12-.2.04-.04.08-.12.12-.16.04-.08.08-.12.08-.2.04-.08.04-.12.08-.2,0-.08.04-.12.04-.2s.04-.12.04-.2v-.2c.04-.12.04-.16.04-.24Z"/>
      <path class="cls-1" d="M32.69,33.83c.04-.08.08-.12.12-.2.04-.04.08-.12.12-.16.04-.08.08-.12.08-.2.04-.08.04-.12.08-.2,0-.08.04-.12.04-.2s.04-.12.04-.2v-.4c0-.08,0-.12-.04-.2,0-.08-.04-.12-.04-.2s-.04-.12-.08-.2c-.04-.08-.04-.12-.08-.2s-.08-.12-.12-.16c-.04-.08-.08-.12-.12-.2t-.04-.08l-7.67-8.63c-.8-.92-2.21-.96-3.09-.16-.92.8-.96,2.21-.16,3.09l6.35,7.11-6.35,7.11c-.8.92-.72,2.29.16,3.09.4.36.92.56,1.45.56.6,0,1.2-.24,1.65-.72l7.67-8.55s.04-.08.04-.08Z"/>
    </g>
  </g>
  <g class="cls-10">
    <g class="cls-7">
      <path class="cls-5" d="M52.37,32.43c0,.33,0,.65-.02.98-.02.33-.04.65-.07.98-.03.33-.07.65-.12.97-.05.32-.1.65-.17.97-.06.32-.14.64-.22.96-.08.32-.17.63-.26.95-.1.31-.2.62-.31.93-.11.31-.23.61-.35.92-.13.3-.26.6-.4.9-.14.3-.29.59-.44.88s-.32.57-.48.85c-.17.28-.34.56-.53.83-.18.27-.37.54-.57.8-.19.26-.4.52-.6.77-.21.25-.42.5-.64.74-.22.24-.45.48-.68.71-.23.23-.47.46-.71.68-.24.22-.49.43-.74.64-.25.21-.51.41-.77.6-.26.19-.53.38-.8.57-.27.18-.55.36-.83.53-.28.17-.57.33-.85.48-.29.15-.58.3-.88.44-.3.14-.6.27-.9.4-.3.13-.61.24-.92.35-.31.11-.62.21-.93.31-.31.1-.63.18-.95.26-.32.08-.64.15-.96.22-.32.06-.64.12-.97.17s-.65.09-.97.12c-.33.03-.65.06-.98.07-.33.02-.65.02-.98.02-.33,0-.65,0-.98-.02-.33-.02-.65-.04-.98-.07-.33-.03-.65-.07-.97-.12-.32-.05-.65-.1-.97-.17-.32-.06-.64-.14-.96-.22-.32-.08-.63-.17-.95-.26-.31-.1-.62-.2-.93-.31-.31-.11-.61-.23-.92-.35-.3-.13-.6-.26-.9-.4-.3-.14-.59-.29-.88-.44-.29-.15-.57-.32-.85-.48-.28-.17-.56-.34-.83-.53-.27-.18-.54-.37-.8-.57-.26-.19-.52-.4-.77-.6-.25-.21-.5-.42-.74-.64-.24-.22-.48-.45-.71-.68-.23-.23-.46-.47-.68-.71-.22-.24-.43-.49-.64-.74-.21-.25-.41-.51-.6-.77-.19-.26-.38-.53-.57-.8-.18-.27-.36-.55-.53-.83s-.33-.57-.48-.85c-.15-.29-.3-.58-.44-.88-.14-.3-.27-.6-.4-.9-.13-.3-.24-.61-.35-.92s-.21-.62-.31-.93c-.1-.31-.18-.63-.26-.95-.08-.32-.15-.64-.22-.96-.06-.32-.12-.64-.17-.97-.05-.32-.09-.65-.12-.97-.03-.33-.06-.65-.07-.98-.02-.33-.02-.65-.02-.98,0-.33,0-.65.02-.98.02-.33.04-.65.07-.98.03-.33.07-.65.12-.97.05-.32.1-.65.17-.97.06-.32.14-.64.22-.96.08-.32.17-.63.26-.95.1-.31.2-.62.31-.93.11-.31.23-.61.35-.92.13-.3.26-.6.4-.9.14-.3.29-.59.44-.88.15-.29.32-.57.48-.85s.34-.56.53-.83c.18-.27.37-.54.57-.8.19-.26.4-.52.6-.77.21-.25.42-.5.64-.74.22-.24.45-.48.68-.71.23-.23.47-.46.71-.68.24-.22.49-.43.74-.64.25-.21.51-.41.77-.6.26-.19.53-.38.8-.57.27-.18.55-.36.83-.53.28-.17.57-.33.85-.48.29-.15.58-.3.88-.44.3-.14.6-.27.9-.4.3-.13.61-.24.92-.35.31-.11.62-.21.93-.31s.63-.18.95-.26c.32-.08.64-.15.96-.22.32-.06.64-.12.97-.17.32-.05.65-.09.97-.12.33-.03.65-.06.98-.07.33-.02.65-.02.98-.02s.65,0,.98.02c.33.02.65.04.98.07.33.03.65.07.97.12.32.05.65.1.97.17.32.06.64.14.96.22.32.08.63.17.95.26s.62.2.93.31c.31.11.61.23.92.35.3.13.6.26.9.4s.59.29.88.44c.29.15.57.32.85.48.28.17.56.34.83.53.27.18.54.37.8.57.26.19.52.4.77.6.25.21.5.42.74.64.24.22.48.45.71.68s.46.47.68.71c.22.24.43.49.64.74.21.25.41.51.6.77.19.26.38.53.57.8.18.27.36.55.53.83.17.28.33.57.48.85.15.29.3.58.44.88s.27.6.4.9c.13.3.24.61.35.92.11.31.21.62.31.93.1.31.18.63.26.95.08.32.15.64.22.96.06.32.12.64.17.97.05.32.09.65.12.97.03.33.06.65.07.98.02.33.02.65.02.98Z"/>
      <path class="cls-6" d="M43.58,32.23c0-.08,0-.12-.04-.2,0-.08-.04-.12-.04-.2s-.04-.12-.08-.2-.04-.12-.08-.2c-.04-.08-.08-.12-.12-.16-.04-.08-.08-.12-.12-.2t-.04-.08l-7.67-8.59c-.8-.92-2.21-.96-3.09-.16-.92.8-.96,2.21-.16,3.09l6.31,7.11-6.35,7.11c-.8.92-.72,2.29.16,3.09.4.36.92.56,1.45.56.6,0,1.2-.24,1.65-.72l7.67-8.55s.04-.04.04-.08c.04-.08.08-.12.12-.2.04-.04.08-.12.12-.16.04-.08.08-.12.08-.2.04-.08.04-.12.08-.2,0-.08.04-.12.04-.2s.04-.12.04-.2v-.2c.04-.12.04-.16.04-.24Z"/>
      <path class="cls-1" d="M32.69,33.83c.04-.08.08-.12.12-.2.04-.04.08-.12.12-.16.04-.08.08-.12.08-.2.04-.08.04-.12.08-.2,0-.08.04-.12.04-.2s.04-.12.04-.2v-.4c0-.08,0-.12-.04-.2,0-.08-.04-.12-.04-.2s-.04-.12-.08-.2c-.04-.08-.04-.12-.08-.2s-.08-.12-.12-.16c-.04-.08-.08-.12-.12-.2t-.04-.08l-7.67-8.63c-.8-.92-2.21-.96-3.09-.16-.92.8-.96,2.21-.16,3.09l6.35,7.11-6.35,7.11c-.8.92-.72,2.29.16,3.09.4.36.92.56,1.45.56.6,0,1.2-.24,1.65-.72l7.67-8.55s.04-.08.04-.08Z"/>
    </g>
  </g>
</svg>